# xmcd
#
# Track frame offsets:
#	150
#	14264
#	26696
#	40825
#	53885
#	66365
#	79295
#	92449
#	104690
#	117998
#	130464
#	144341
#	159438
#	174568
#	187012
#	201613
#	215535
#	231198
#	244420
#	257148
#	270895
#	285706
#	299465
#	313537
#	326181
#	337228
#	347829
#
# Disc length: 4796 seconds
#
# Revision: 0
# Processed by: cddbd v1.5.2PL0 Copyright (c) Steve Scherf et al.
# Submitted via: audiograbber 1.83.01
#
DISCID=ae12ba1b
DTITLE=Various Artist - A Rhythm and Blues Chronology 3 [CD2)
DYEAR=2015
DGENRE=R&B
TTITLE0=Joe Liggins and His Honeydrippers - The Honeydripper
TTITLE1=Helen Humes - Be-baba-leba
TTITLE2=Johnny Otis, His Drums and Ork - Harlem Nocturne
TTITLE3=Julia Lee and Her Boyfriends - If It's Good
TTITLE4=Buster Bennett - Reefer Head Woman
TTITLE5=Big Maceo - Texas Stomp
TTITLE6=Eddie Vinson - Sommebody's Gotta Go
TTITLE7=Jack McVea - Bartender Boogie
TTITLE8=Arthur 'Big Boy' Crudup - Rock Me Mama
TTITLE9=Jim Wynn - Rock Boogie
TTITLE10=Big Joe Turner - Doggin' The Blues
TTITLE11=Dinah Washington - Blow Top Blues
TTITLE12=Erskine Hawkins Orchestra - Tippin' In
TTITLE13=Marion Abernathy - Voo-It Voo-It
TTITLE14=Roosevelt Sykes Trio - Anytime Is The Right Time
TTITLE15=Ike Quebec - Topsy
TTITLE16=The Four Jumps Of Five - It's Just The Blues
TTITLE17=Rubberlegs Williams - That's The Blues
TTITLE18=Roy Milton and His Solid Senders - Milton's Boogie
TTITLE19=Jimmy Rushing - My Baby's Busines
TTITLE20=Hadda Brooks - Swingin' The Boogie
TTITLE21=Slim Gaillard - Travellin' Blues
TTITLE22=Lionel Hampton - Beulah's Boogie
TTITLE23=Wyonie Harris - Wyonie's Blues
TTITLE24=The Coleman Brothes - Get Away Mr. Satan Away
TTITLE25=Bill Monroe - Rock Road Blues
TTITLE26=Ella Fitzgerald w. Louis Jordan - Stone Cold Dead In The Market
EXTD=
EXTT0=
EXTT1=
EXTT2=
EXTT3=
EXTT4=
EXTT5=
EXTT6=
EXTT7=
EXTT8=
EXTT9=
EXTT10=
EXTT11=
EXTT12=
EXTT13=
EXTT14=
EXTT15=
EXTT16=
EXTT17=
EXTT18=
EXTT19=
EXTT20=
EXTT21=
EXTT22=
EXTT23=
EXTT24=
EXTT25=
EXTT26=
PLAYORDER=
